# xmcd
#
# Track frame offsets: 
#        150
#        9863
#        18052
#        28951
#        43611
#        54018
#        64995
#        78233
#        95125
#        117277
#        132676
#        150302
#        166410
#        187647
#        197445
#        211126
#
# Disc length: 2984 seconds
#
# Revision: 1
# Processed by: cddbd v1.5PL3 Copyright (c) Steve Scherf et al.
# Submitted via: ExactAudioCopy v0.90b4
#
DISCID=c00ba610
DTITLE=Various Artist - From Spirituals to Swing - The Legendary 1938
DTITLE=and 1939 Carnegie Hall Concerts Produced by John Hammond - Disc 
DTITLE=2 of 3
DYEAR=1900
DGENRE=Misc
TTITLE0=New Orleans Feetwarmers - Weary Blues
TTITLE1=New Orleans Feetwarmers - Milenberg Joys
TTITLE2=New Orleans Feetwarmers - I Wish I Could Shimmy Like My Sister
TTITLE2=Kate
TTITLE3=Big Bill Broonzy and Albert Ammons - It Was Just a Dream
TTITLE4=Sonny Terry - Fox Chase
TTITLE5=James Johnson - Carolina Shout
TTITLE6=Count Basie Orch. - Every Tub
TTITLE7=Jimmy Rushing and Count Basie Orch. - Stealin' Blues
TTITLE8=Kansas City Five - After You've Gone
TTITLE9=Kansas City Fife - Oh, Lady Be Good
TTITLE10=Kansas City Five - Allez-Oop
TTITLE11=Kansas City Five - Mortgage Stomp
TTITLE12=Spoken Introduction by Sterling A. Brown
TTITLE13=Golden Gate Quartet - Gospel Train
TTITLE14=Golden Gate Quartet - I'm on My Way
TTITLE15=Golden Gate Quartet - Noah
EXTD=
EXTT0=
EXTT1=
EXTT2=
EXTT3=
EXTT4=
EXTT5=
EXTT6=
EXTT7=
EXTT8=
EXTT9=
EXTT10=
EXTT11=
EXTT12=
EXTT13=
EXTT14=
EXTT15=
PLAYORDER=
